<svg width="20" height="20" viewBox="0 0 20 20" fill="none" xmlns="http://www.w3.org/2000/svg">
<path d="M3.33301 14.9844V8.08993C3.33301 5.06213 3.33301 3.54823 4.30932 2.60761C5.28563 1.66699 6.85698 1.66699 9.99967 1.66699C13.1424 1.66699 14.7137 1.66699 15.69 2.60761C16.6663 3.54823 16.6663 5.06213 16.6663 8.08993V14.9844C16.6663 16.9059 16.6663 17.8666 16.0223 18.2106C14.7751 18.8765 12.4357 16.6547 11.3247 15.9857C10.6803 15.5977 10.3582 15.4037 9.99967 15.4037C9.64118 15.4037 9.31901 15.5977 8.67468 15.9857C7.56367 16.6547 5.22423 18.8765 3.97705 18.2106C3.33301 17.8666 3.33301 16.9059 3.33301 14.9844Z" stroke="#777777" stroke-width="1.5" stroke-linecap="round" stroke-linejoin="round"/>
</svg>
