<svg width="51" height="50" viewBox="0 0 51 50" fill="none" xmlns="http://www.w3.org/2000/svg">
<path d="M18.1799 18.719C18.5329 15.1885 21.5037 12.5 25.0518 12.5C28.5998 12.5 31.5706 15.1885 31.9237 18.719L32.2819 22.3017C32.353 23.0122 32.3885 23.3674 32.4543 23.7137C32.61 24.5334 32.8929 25.3236 33.2929 26.0559C33.4619 26.3651 33.6599 26.6622 34.056 27.2564L35.4788 29.3906C36.3913 30.7593 36.8476 31.4437 36.5649 31.9719C36.2823 32.5 35.4597 32.5 33.8147 32.5H16.2888C14.6438 32.5 13.8213 32.5 13.5386 31.9719C13.2559 31.4437 13.7122 30.7593 14.6247 29.3906L16.0475 27.2564C16.4436 26.6622 16.6417 26.3651 16.8106 26.0559C17.2106 25.3236 17.4935 24.5334 17.6492 23.7137C17.715 23.3674 17.7505 23.0122 17.8216 22.3017L18.1799 18.719Z" fill="#2E2600"/>
<path d="M21.3018 32.5C21.3018 32.9925 21.3988 33.4801 21.5872 33.9351C21.7757 34.39 22.0519 34.8034 22.4001 35.1517C22.7483 35.4999 23.1617 35.7761 23.6167 35.9645C24.0717 36.153 24.5593 36.25 25.0518 36.25C25.5442 36.25 26.0318 36.153 26.4868 35.9645C26.9418 35.7761 27.3552 35.4999 27.7034 35.1517C28.0516 34.8034 28.3279 34.39 28.5163 33.9351C28.7048 33.4801 28.8018 32.9925 28.8018 32.5L25.0518 32.5H21.3018Z" fill="#2E2600"/>
</svg>
