<svg width="22" height="22" viewBox="0 0 22 22" fill="none" xmlns="http://www.w3.org/2000/svg">
<path d="M12.9015 3.56134C13.5846 2.82125 13.9262 2.4512 14.2891 2.23536C15.1648 1.71454 16.2431 1.69834 17.1335 2.19264C17.5025 2.39749 17.8545 2.75712 18.5586 3.47637C19.2627 4.19563 19.6147 4.55525 19.8153 4.93219C20.2991 5.8417 20.2833 6.94323 19.7735 7.83782C19.5622 8.20857 19.1999 8.55747 18.4754 9.25527L9.85539 17.5578C8.48245 18.8801 7.79598 19.5413 6.93804 19.8764C6.0801 20.2115 5.13692 20.1869 3.25057 20.1375L2.99391 20.1308C2.41965 20.1158 2.13251 20.1083 1.9656 19.9189C1.7987 19.7295 1.82148 19.437 1.86706 18.852L1.8918 18.5344C2.02008 16.8879 2.08421 16.0647 2.40572 15.3247C2.72722 14.5847 3.2818 13.9838 4.39096 12.7821L12.9015 3.56134Z" stroke="#F4F4F4" stroke-width="1.5" stroke-linejoin="round"/>
<path d="M11.916 3.66699L18.3327 10.0837" stroke="#F4F4F4" stroke-width="1.5" stroke-linejoin="round"/>
<path d="M12.834 20.167L20.1673 20.167" stroke="#F4F4F4" stroke-width="1.5" stroke-linecap="round" stroke-linejoin="round"/>
</svg>
