<svg width="34" height="34" viewBox="0 0 34 34" fill="none" xmlns="http://www.w3.org/2000/svg">
<path d="M17 0C26.3888 0 34 7.61116 34 17C34 26.3888 26.3888 34 17 34C7.61116 34 0 26.3888 0 17C0 7.61116 7.61116 0 17 0ZM17 5.5C16.4477 5.5 16 5.94772 16 6.5V7.55371C11.5584 8.02482 8.03128 11.5566 7.56641 16H6.5C5.94772 16 5.5 16.4477 5.5 17C5.5 17.5523 5.94772 18 6.5 18H7.56641C8.03128 22.4434 11.5585 25.9742 16 26.4453V27.5C16 28.0523 16.4477 28.5 17 28.5C17.5523 28.5 18 28.0523 18 27.5V26.4492C22.4544 25.9897 25.9951 22.4525 26.4609 18H27.5C28.0523 18 28.5 17.5523 28.5 17C28.5 16.4477 28.0523 16 27.5 16H26.4609C25.9951 11.5474 22.4544 8.00928 18 7.5498V6.5C18 5.94773 17.5523 5.50002 17 5.5ZM17.0137 9.5C21.1101 9.50002 24.4368 12.7843 24.5098 16.8633C24.5036 16.908 24.5 16.9536 24.5 17C24.5 17.0461 24.5037 17.0913 24.5098 17.1357C24.4373 21.2152 21.1104 24.5 17.0137 24.5C12.8715 24.5 9.51367 21.1421 9.51367 17C9.51367 12.8579 12.8715 9.5 17.0137 9.5ZM17 13.25C14.9289 13.25 13.25 14.9289 13.25 17C13.25 19.0711 14.9289 20.75 17 20.75C19.071 20.75 20.75 19.0711 20.75 17C20.75 14.9289 19.071 13.25 17 13.25Z" fill="#F4F4F4"/>
</svg>
