<svg width="60" height="60" viewBox="0 0 60 60" fill="none" xmlns="http://www.w3.org/2000/svg">
<circle cx="30" cy="30" r="30" fill="#E7E7E7"/>
<g clip-path="url(#clip0_313_1079)">
<path d="M49.5237 30.3746C49.5237 28.7358 49.3907 27.54 49.1029 26.2998H30.3896V33.6964H41.3739C41.1525 35.5346 39.9567 38.3029 37.2991 40.163L37.2619 40.4106L43.1787 44.9943L43.5886 45.0352C47.3533 41.5583 49.5237 36.4426 49.5237 30.3746Z" fill="#4285F4"/>
<path d="M30.3893 49.8624C35.7707 49.8624 40.2884 48.0906 43.5883 45.0346L37.2988 40.1624C35.6157 41.3361 33.3568 42.1555 30.3893 42.1555C25.1186 42.1555 20.6452 38.6787 19.0505 33.873L18.8168 33.8929L12.6644 38.6543L12.584 38.8779C15.8615 45.3888 22.5939 49.8624 30.3893 49.8624Z" fill="#34A853"/>
<path d="M19.0505 33.8736C18.6298 32.6335 18.3863 31.3046 18.3863 29.9317C18.3863 28.5585 18.6298 27.2298 19.0284 25.9897L19.0172 25.7256L12.7878 20.8877L12.584 20.9846C11.2331 23.6865 10.458 26.7205 10.458 29.9317C10.458 33.1428 11.2331 36.1767 12.584 38.8785L19.0505 33.8736Z" fill="#FBBC05"/>
<path d="M30.3893 17.7067C34.1319 17.7067 36.6565 19.3234 38.096 20.6744L43.7211 15.1821C40.2664 11.971 35.7707 10 30.3893 10C22.5939 10 15.8615 14.4734 12.584 20.9843L19.0284 25.9893C20.6452 21.1837 25.1186 17.7067 30.3893 17.7067Z" fill="#EB4335"/>
</g>
<defs>
<clipPath id="clip0_313_1079">
<rect width="40" height="40" fill="white" transform="translate(10 10)"/>
</clipPath>
</defs>
</svg>
