<svg width="38" height="33" viewBox="0 0 38 33" fill="none" xmlns="http://www.w3.org/2000/svg">
<path d="M23.0186 30.917C23.4553 30.917 23.6738 30.9171 23.8096 30.7979C23.9453 30.6784 23.9453 30.486 23.9453 30.1016V28.3438C23.9455 27.5934 24.6373 26.9855 25.4902 26.9854C26.3433 26.9854 27.035 27.5933 27.0352 28.3438V30.1016C27.0352 30.4857 27.0354 30.6784 27.1709 30.7979C27.3066 30.9173 27.5259 30.917 27.9629 30.917H30.6436C30.9957 30.9171 31.3638 30.9173 31.6719 30.8818C32.0262 30.841 32.4711 30.7377 32.8477 30.415C33.2286 30.0886 33.3547 29.6962 33.4043 29.3799C33.4465 29.1106 33.4464 28.7908 33.4463 28.4912V22.6563C33.4463 22.5932 33.4472 22.5616 33.4512 22.5352C33.4785 22.3522 33.6417 22.2077 33.8496 22.1836C33.8797 22.1801 33.9157 22.1807 33.9873 22.1807C34.6272 22.1807 35.1465 21.7241 35.1465 21.1611C35.1465 20.5982 34.6272 20.1416 33.9873 20.1416H33.8994C34.2399 19.2856 34.3616 18.4391 34.2656 17.6006C34.0862 16.0342 33.1811 14.7556 32.1826 13.7344C31.2689 12.7999 30.1548 11.9614 29.2002 11.2432C29.1171 11.1806 29.0346 11.1193 28.9541 11.0586C27.8717 10.242 27.1104 9.63195 26.7119 9.0918C26.4359 8.71784 25.9791 8.49413 25.4912 8.49414C25.0035 8.49427 24.5474 8.71799 24.2715 9.0918C23.8731 9.63193 23.1117 10.242 22.0293 11.0586C21.9488 11.1194 21.8664 11.1815 21.7832 11.2441C20.8287 11.9623 19.7143 12.8 18.8008 13.7344C17.8024 14.7556 16.8972 16.0342 16.7178 17.6006C16.6218 18.4391 16.7435 19.2857 17.084 20.1416H16.9941C16.3542 20.1416 15.835 20.5982 15.835 21.1611C15.835 21.7241 16.3542 22.1807 16.9941 22.1807C17.0656 22.1807 17.1018 22.1801 17.1318 22.1836C17.3397 22.2078 17.5029 22.3523 17.5303 22.5352C17.5342 22.5616 17.5342 22.5932 17.5342 22.6562V28.4912C17.5341 28.7908 17.534 29.1106 17.5762 29.3799C17.6258 29.6962 17.7529 30.0886 18.1338 30.415C18.5104 30.7376 18.9552 30.841 19.3096 30.8818C19.6177 30.9173 19.9857 30.9171 20.3379 30.917H23.0186ZM20.3809 20.1416C19.7276 19.1935 19.596 18.4609 19.6611 17.8916C19.7455 17.1551 20.1885 16.406 20.9912 15.585C21.7451 14.8139 22.6879 14.1044 23.6807 13.3564C23.7518 13.3029 23.823 13.2483 23.8945 13.1943C24.4159 12.801 24.9765 12.3759 25.4912 11.9258C26.006 12.3759 26.5674 12.8009 27.0889 13.1943C27.1604 13.2483 27.2316 13.3029 27.3027 13.3564C28.2956 14.1045 29.2382 14.8138 29.9922 15.585C30.795 16.4061 31.2379 17.1551 31.3223 17.8916C31.3874 18.4609 31.2559 19.1934 30.6025 20.1416H20.3809Z" fill="#2E2600"/>
<path fill-rule="evenodd" clip-rule="evenodd" d="M13.8187 4.07751C8.89904 4.07751 4.63469 7.82427 4.63469 12.423C4.63469 17.0469 8.91309 20.4336 13.5138 23.0359C13.6102 23.0817 13.7147 23.1045 13.8187 23.1045C14.6719 23.1045 15.3636 23.7129 15.3636 24.4635C15.3636 25.2141 14.6719 25.8226 13.8187 25.8226C13.1549 25.8226 12.505 25.6663 11.9333 25.372L11.9059 25.3579L11.8792 25.3428C7.26817 22.7394 1.54492 18.6339 1.54492 12.423C1.54492 6.38237 7.12598 1.35938 13.8187 1.35938C17.3281 1.35938 20.5276 2.74575 22.7702 4.91006C23.3449 5.46478 23.2997 6.32438 22.6692 6.83002C22.0386 7.33566 21.0615 7.29587 20.4867 6.74115C18.778 5.09205 16.3852 4.07751 13.8187 4.07751ZM8.49691 12.2319C8.49691 9.60485 10.9177 7.47518 13.904 7.47518C15.674 7.47518 17.2454 8.2248 18.2293 9.37709C18.7417 9.97724 18.6041 10.8292 17.9219 11.28C17.2397 11.7308 16.2712 11.6097 15.7588 11.0095C15.3334 10.5113 14.6612 10.1933 13.904 10.1933C12.6242 10.1933 11.5867 11.106 11.5867 12.2319C11.5867 13.2166 12.3818 14.041 13.4389 14.2297C14.2751 14.379 14.8153 15.0964 14.6456 15.832C14.4758 16.5676 13.6604 17.0429 12.8242 16.8935C10.3555 16.4527 8.49691 14.5348 8.49691 12.2319Z" fill="#2E2600"/>
</svg>
