<svg width="20" height="20" viewBox="0 0 20 20" fill="none" xmlns="http://www.w3.org/2000/svg">
<g clip-path="url(#clip0_1135_547)">
<path d="M16.667 7.50032C16.0044 4.17912 12.9277 1.66699 9.23304 1.66699C5.0549 1.66699 1.66699 4.87967 1.66699 8.84203C1.66699 10.7458 2.44882 12.4756 3.72412 13.7593C4.0049 14.042 4.19237 14.4281 4.11671 14.8256C3.99185 15.4754 3.70887 16.0815 3.29453 16.5867C4.38468 16.7877 5.51821 16.6067 6.49034 16.0943C6.83398 15.9131 7.0058 15.8226 7.12705 15.8042C7.21192 15.7913 7.32249 15.8033 7.50032 15.8339" stroke="#777777" stroke-width="1.5" stroke-linecap="round" stroke-linejoin="round"/>
<path d="M9.16699 13.5517C9.16699 15.9732 11.2193 17.9365 13.7503 17.9365C14.0479 17.9369 14.3447 17.9094 14.637 17.8545C14.8474 17.8149 14.9526 17.7952 15.0261 17.8064C15.0995 17.8176 15.2036 17.873 15.4118 17.9837C16.0007 18.2968 16.6873 18.4074 17.3477 18.2846C17.0967 17.9759 16.9253 17.6055 16.8497 17.2083C16.8038 16.9655 16.9174 16.7295 17.0875 16.5567C17.86 15.7723 18.3337 14.7152 18.3337 13.5517C18.3337 11.1303 16.2813 9.16699 13.7503 9.16699C11.2193 9.16699 9.16699 11.1303 9.16699 13.5517Z" stroke="#777777" stroke-width="1.5" stroke-linejoin="round"/>
</g>
<defs>
<clipPath id="clip0_1135_547">
<rect width="20" height="20" fill="white"/>
</clipPath>
</defs>
</svg>
