<svg width="26" height="26" viewBox="0 0 26 26" fill="none" xmlns="http://www.w3.org/2000/svg">
<path fill-rule="evenodd" clip-rule="evenodd" d="M18.4257 18.4247C18.8813 17.9691 19.62 17.9691 20.0756 18.4247L25.3256 23.6747C25.7812 24.1303 25.7812 24.869 25.3256 25.3246C24.87 25.7802 24.1313 25.7802 23.6757 25.3246L18.4257 20.0746C17.9701 19.619 17.9701 18.8803 18.4257 18.4247Z" fill="#777777"/>
<path fill-rule="evenodd" clip-rule="evenodd" d="M0 11.6667C0 5.22334 5.22334 0 11.6667 0C18.11 0 23.3333 5.22334 23.3333 11.6667C23.3333 18.11 18.11 23.3333 11.6667 23.3333C5.22334 23.3333 0 18.11 0 11.6667ZM11.6667 2.33333C6.51201 2.33333 2.33333 6.51201 2.33333 11.6667C2.33333 16.8213 6.51201 21 11.6667 21C16.8213 21 21 16.8213 21 11.6667C21 6.51201 16.8213 2.33333 11.6667 2.33333Z" fill="#777777"/>
</svg>
