<svg width="34" height="34" viewBox="0 0 34 34" fill="none" xmlns="http://www.w3.org/2000/svg">
<path d="M17 0C26.3888 0 34 7.61116 34 17C34 26.3888 26.3888 34 17 34C7.61116 34 0 26.3888 0 17C0 7.61116 7.61116 0 17 0ZM8.70605 7.29297C8.31553 6.90244 7.68252 6.90244 7.29199 7.29297C6.90149 7.68349 6.90147 8.31651 7.29199 8.70703L9.9668 11.3818C8.98429 12.61 8.31775 14.1017 8.08789 15.7334C8.06656 15.8848 7.93809 16 7.78516 16H6.99902C6.44677 16 5.99906 16.4477 5.99902 17C5.99904 17.5522 6.44677 18 6.99902 18H7.78516C7.93799 18 8.06645 18.1153 8.08789 18.2666C8.6453 22.2234 11.7756 25.3547 15.7324 25.9121C15.8837 25.9336 15.999 26.0611 15.999 26.2139V27C15.999 27.5523 16.4468 28 16.999 28C17.5513 28 17.999 27.5523 17.999 27V26.2139C17.999 26.061 18.1142 25.9335 18.2656 25.9121C19.8973 25.6823 21.388 25.0137 22.6162 24.0312L25.292 26.707C25.6825 27.0975 26.3155 27.0975 26.7061 26.707C27.0966 26.3165 27.0966 25.6835 26.7061 25.293L8.70605 7.29297ZM16.999 6C16.4467 6 15.999 6.44772 15.999 7V7.78613C15.999 7.93906 15.8839 8.06754 15.7324 8.08887C14.7655 8.22506 13.8476 8.51463 13.0049 8.93262C12.8264 9.02137 12.7928 9.25833 12.9336 9.39941L13.9961 10.4619C14.084 10.5497 14.2171 10.5737 14.332 10.5264C15.154 10.1874 16.0547 10 16.999 10C20.865 10 23.999 13.1341 23.999 17C23.999 17.9443 23.8116 18.845 23.4727 19.667C23.4253 19.7819 23.4494 19.915 23.5371 20.0029L24.5996 21.0654C24.7407 21.2064 24.9776 21.1727 25.0664 20.9941C25.4844 20.1514 25.774 19.2335 25.9102 18.2666C25.9315 18.1152 26.06 18 26.2129 18H26.999C27.5513 18 27.999 17.5522 27.999 17C27.999 16.4477 27.5513 16 26.999 16H26.2129C26.06 16 25.9316 15.8847 25.9102 15.7334C25.3527 11.7767 22.2224 8.6463 18.2656 8.08887C18.1143 8.06742 17.999 7.93898 17.999 7.78613V7C17.999 6.44772 17.5513 6 16.999 6Z" fill="#F4F4F4"/>
</svg>
